<?xml version="1.0" standalone="no"?>
<!DOCTYPE svg PUBLIC "-//W3C//DTD SVG 20010904//EN"
 "http://www.w3.org/TR/2001/REC-SVG-20010904/DTD/svg10.dtd">
<svg version="1.0" xmlns="http://www.w3.org/2000/svg"
 width="64.000000pt" height="64.000000pt" viewBox="0 0 64.000000 64.000000"
 preserveAspectRatio="xMidYMid meet">

<g transform="translate(0.000000,64.000000) scale(0.100000,-0.100000)"
fill="#000000" stroke="none">
<path d="M265 495 c-3 -8 -7 -22 -10 -30 -3 -10 -18 -15 -45 -15 -33 0 -40 -3
-40 -20 0 -19 7 -20 148 -20 82 0 151 3 155 6 14 15 -8 34 -39 34 -27 0 -36 6
-49 30 -14 27 -20 30 -66 30 -35 0 -51 -4 -54 -15z m95 -19 c0 -15 -78 -28
-86 -14 -11 17 9 28 47 28 27 0 39 -4 39 -14z"/>
<path d="M227 383 l-38 -4 7 -82 c3 -45 9 -100 13 -122 l7 -40 100 -3 c73 -2
104 1 112 10 5 7 12 64 14 126 l3 112 -55 0 c-30 0 -71 2 -90 4 -19 2 -52 2
-73 -1z m38 -123 c0 -58 -4 -85 -12 -87 -10 -4 -13 18 -13 87 0 69 3 91 13 88
8 -3 12 -30 12 -88z m65 0 c0 -53 -4 -90 -10 -90 -6 0 -10 37 -10 90 0 53 4
90 10 90 6 0 10 -37 10 -90z m68 5 c-4 -106 -22 -117 -26 -16 -3 79 1 101 18
101 7 0 10 -29 8 -85z"/>
</g>
</svg>
